<svg xmlns="http://www.w3.org/2000/svg" viewBox="0 0 100 100"><path fill="#2d3748" d="M50 90c20 0 25-20 25-40S65 20 50 20 25 30 25 50s5 40 25 40z"/><path fill="#e2e8f0" d="M50 85c15 0 20-20 20-35S60 30 50 30s-20 5-20 20 5 35 20 35z"/><circle fill="#2d3748" cx="43" cy="40" r="3"/><circle fill="#2d3748" cx="57" cy="40" r="3"/><path fill="#f6ad55" d="m50 50-5 5h10z"/><path fill="#4299e1" d="M30 30h40l-5-5H35zm5-5c-5-5 0-10 15-10s20 5 15 10z"/><path fill="#f6ad55" d="M45 90c-5 5-10 5-15 0v-5zm10 0c5 5 10 5 15 0v-5z"/></svg>