<svg xmlns="http://www.w3.org/2000/svg" viewBox="0 0 100 100" width="200" height="200"><path fill="#f6ad55" d="M45 90c-5 5-10 5-15 0v-5zM55 90c5 5 10 5 15 0v-5z"/><path d="M50 90c20 0 25-20 25-40S65 20 50 20 25 30 25 50s5 40 25 40z"/><path fill="#e2e8f0" d="M50 85c15 0 20-20 20-35S60 30 50 30s-20 5-20 20 5 35 20 35z"/><path fill="#22bf2c" d="M30 30h40l-5-5H35zM35 25c-5-5 0-10 15-10s20 5 15 10z"/><circle cx="43" cy="40" r="3"/><circle cx="57" cy="40" r="3"/><path fill="#f6ad55" d="m50 50-5 5h10z"/><path fill="#ef4444" d="M35 60c5 5 25 5 30 0v10q-15 5-30 0z"/></svg>